<svg xmlns="http://www.w3.org/2000/svg" width="810" viewBox="0 0 810 810" height="810" version="1.0"><path fill="#FFF" d="M-81 -81H891V891H-81z"/><path fill="#FFF" d="M-81 -81H891V891H-81z"/><path fill="#F0F1F1" d="M-81 -81H891V891H-81z"/><path fill="#31D35C" d="M 326.410156 745.679688 C 332.285156 714.179688 331.230469 699.855469 336.875 693.464844 C 341.539062 687.425781 345.378906 680.765625 348.34375 674.015625 C 350.628906 668.835938 354.773438 664.695312 355.96875 659.035156 C 360.078125 653.570312 366.273438 649.335938 369.757812 643.175781 C 372.902344 638.53125 377.972656 636.675781 382.277344 633.675781 C 391.496094 628.765625 389.136719 615.40625 397.726562 608.601562 C 399.460938 606.996094 400.746094 606.28125 402.515625 608.800781 C 407.660156 615.566406 415.445312 595.601562 418.660156 592.351562 C 422.054688 587.136719 426.128906 582.332031 429.269531 576.851562 C 437.96875 564.40625 457.382812 576.621094 453.617188 565.53125 C 452.078125 561.636719 454.507812 560.492188 456.542969 560.191406 C 470.351562 557.066406 480.191406 546.617188 491.589844 539.136719 C 498.035156 533.957031 504.359375 534.597656 511.808594 537.351562 C 515.824219 536.332031 520.253906 528.992188 520.128906 532.296875 C 519.542969 534.457031 522.808594 536.546875 523.578125 534.011719 C 526.078125 520.6875 537.296875 526.457031 542.136719 514.742188 C 543.351562 511.082031 546.386719 511.796875 555.851562 507.847656 C 561.140625 505.367188 562.730469 513.722656 568.585938 507.8125 C 585.769531 493.617188 600.828125 480.042969 623.671875 480.953125 C 626.976562 483.488281 629.242188 481.988281 630.921875 478.847656 C 639.300781 466.828125 647.375 448.328125 664.199219 448.328125 C 667.164062 448.488281 669.449219 447.578125 670.59375 444.273438 C 671.84375 440.632812 676.773438 439.238281 676.824219 434.558594 C 676.84375 433.863281 678.664062 432.828125 679.808594 432.558594 C 686.347656 432.058594 689.648438 422.933594 696.082031 424.828125 C 699.582031 425.953125 702.277344 421.59375 704.582031 419.539062 C 712.566406 409.738281 721.765625 401.113281 730.964844 392.523438 C 733.679688 389.984375 737.019531 387.699219 734.945312 383.003906 C 736.285156 377.003906 766.667969 332.484375 762.363281 337.644531 C 758.703125 342.039062 740.699219 366.628906 739.589844 367.769531 C 725.265625 382.734375 713.691406 400.09375 694.492188 409.328125 C 687.773438 412.578125 681.453125 417.203125 675.273438 421.039062 C 669.34375 420.503906 667.253906 425.042969 666.019531 429.09375 C 664.804688 433.59375 660.625 434.023438 657.105469 433.21875 C 648.640625 429.398438 647.535156 439.578125 638.851562 437.683594 C 635.835938 437.433594 630.707031 435.933594 629.691406 440.042969 C 627.832031 447.648438 615.332031 444.96875 607.523438 447.382812 C 600.578125 449.183594 603.363281 461.523438 595.683594 460.613281 C 587.554688 455.382812 561.640625 475.277344 579.195312 475.488281 C 582 475.097656 582.589844 479.4375 579.824219 479.652344 C 574.105469 481.382812 558.890625 476.738281 554.246094 480.8125 C 548.921875 485.007812 554.886719 484.9375 556.511719 488.3125 C 556.246094 489.472656 555.085938 490.097656 554.246094 489.6875 C 547.886719 486.417969 548.066406 493.578125 541.636719 494.277344 C 532.222656 493.222656 525.847656 486.117188 517.84375 496.9375 C 511.914062 502.277344 514.058594 507.167969 508.484375 508.792969 C 504.824219 510.5625 501.609375 512.992188 498.320312 515.3125 C 495.644531 517.1875 493.445312 521.8125 489.375 517.152344 C 475.476562 520.027344 455.457031 521.472656 450.472656 536.707031 C 446.648438 542.832031 446.613281 542.902344 439.417969 541.5625 C 429.109375 539.421875 419.699219 550.832031 419.214844 560.117188 C 416.429688 577.90625 387.617188 568.816406 383.171875 586.835938 C 379.082031 594.421875 381.222656 610.175781 376.152344 613.851562 C 371.507812 617.316406 367.042969 621.015625 363.132812 625.335938 C 354.503906 630.230469 346.859375 636.105469 341.539062 644.675781 C 340.964844 645.460938 340.304688 646.640625 340.5 647.425781 C 341.339844 657.996094 333.515625 666.390625 333.480469 677.089844 C 332.464844 690.445312 322.40625 731.660156 326.410156 745.679688"/><path fill="#31D35C" d="M 744.089844 469.523438 C 742.609375 468.257812 741.660156 470.097656 740.519531 469.667969 C 742.25 462.542969 744.679688 460.132812 748.949219 454.113281 C 753.433594 448.773438 754.484375 441.898438 757.664062 435.988281 C 758.273438 434.84375 770.917969 398.378906 769.6875 397.71875 C 766.238281 396.199219 752.253906 436.933594 750.71875 439.023438 C 749.164062 443.34375 725.410156 480.4375 720.800781 475.472656 C 718.941406 474.597656 717.085938 476.488281 715.371094 477.507812 C 703.242188 484.6875 701.722656 496.097656 688.632812 501.5625 C 684.558594 503.277344 681.753906 506.667969 678.738281 510.1875 C 674.84375 514.757812 662.539062 517.421875 656.035156 520.207031 C 650.839844 522.421875 646.550781 526.777344 641.871094 530.171875 C 635.675781 536.046875 637.566406 529.992188 630.601562 535.472656 C 622.277344 539.726562 613.507812 544.511719 604.898438 547.652344 C 595.628906 547.402344 588.59375 552.566406 581.609375 557.332031 C 571.820312 563.992188 558.050781 565.441406 547.332031 570.582031 C 541.0625 573.582031 533.722656 575.457031 528.757812 581.066406 C 527.722656 582.226562 526.363281 583.136719 524.773438 582.761719 C 515.023438 581.371094 512.484375 593.441406 505.464844 597.796875 C 502.914062 599.65625 501.074219 602.066406 496.964844 601.246094 C 493.429688 600.550781 490.605469 603.925781 487.945312 606.136719 C 480.390625 612.425781 477.441406 621.890625 468.316406 625.90625 C 466.726562 626.605469 465.152344 628.140625 463.601562 628.085938 C 453.347656 627.835938 443.363281 632.140625 437.84375 638.78125 C 430.96875 647.871094 430.378906 651.480469 424.589844 661.425781 C 417.214844 670.800781 416.679688 676.765625 411.050781 682.464844 C 405.605469 688.480469 366.398438 742.464844 362.308594 749.339844 C 360.273438 753.609375 410.195312 702.410156 412.140625 700.25 C 424.074219 688.410156 437.863281 680.875 449.203125 668.425781 C 456.707031 660.585938 456.242188 659.195312 465.992188 654.445312 C 469.65625 652.585938 480.390625 649.195312 473.011719 644.53125 C 472.136719 643.945312 470.082031 644.355469 471.476562 642.355469 C 472.316406 641.15625 480.28125 639.460938 485.175781 636.675781 C 496.75 630.085938 470.816406 638.460938 497.839844 621.476562 C 500.109375 619.941406 502 616.871094 504.289062 620.640625 C 511.539062 628.800781 524.898438 614.101562 526.433594 607.960938 C 529.042969 598.335938 536.402344 606.050781 543.8125 601.261719 C 547.171875 598.441406 549.726562 600.246094 553.011719 598.921875 C 556.996094 595.085938 559.890625 592.65625 565.820312 593.171875 C 569.140625 586.226562 577.839844 587.261719 582.359375 582.046875 C 583.589844 580.636719 585.589844 580.832031 587.304688 580.457031 C 607.328125 575.921875 625.851562 567.367188 644.445312 558.992188 C 647.625 557.566406 649.925781 553.867188 654.375 555.566406 C 655.714844 556.082031 657.125 554.386719 657.929688 553.136719 C 665.324219 540.5625 690.277344 535.261719 692.152344 520.902344 C 692.1875 518.757812 695.097656 517.671875 696.847656 516.257812 C 706.171875 507.777344 724.015625 502.382812 726.460938 489.277344 C 726.710938 483.027344 744.019531 476.113281 744.089844 469.523438"/><path fill="#31D35C" d="M 668.804688 588.996094 C 652.589844 591.261719 640.78125 606.566406 625.761719 612.65625 C 613.5625 619.03125 601.308594 625.53125 593.539062 637.730469 C 591.558594 640.835938 588.269531 642.800781 584.878906 643.105469 C 575.089844 644.121094 568.140625 652.820312 558.585938 653.910156 C 552.171875 654.605469 546.242188 655.085938 542.636719 661.320312 C 517.183594 672.085938 510.894531 679.425781 509.039062 677.820312 C 503.664062 673.160156 497.179688 678 491.5 675.605469 C 482.140625 677.175781 472.835938 683.375 463.226562 685.640625 C 460.332031 686.589844 457.296875 687.300781 457.082031 691.25 C 450.722656 697.980469 429.054688 711.195312 416.125 726.179688 C 394.550781 751.179688 347.503906 820.523438 414.589844 739.949219 C 428.21875 723.570312 452.007812 719.304688 470.871094 709.394531 C 487.285156 699.964844 505.019531 698.304688 522.042969 690.730469 C 531.667969 684.714844 545.296875 683.660156 554.53125 676.675781 C 558.066406 674.75 560.800781 672.160156 565.996094 673.910156 C 576.660156 674.285156 586.324219 661.535156 596.074219 655.925781 C 605.847656 647.53125 619.296875 646.585938 628.636719 637.550781 C 632.335938 636.085938 645.035156 623.941406 648.070312 629.191406 C 652.785156 635.28125 661.839844 616.40625 666.378906 613.816406 C 671.519531 606.746094 690.882812 606.816406 690.027344 598.191406 C 689.632812 596.546875 690.363281 594.921875 691.417969 594.066406 C 697.0625 589.546875 700.847656 582.957031 707.886719 579.941406 C 713.261719 577.621094 717.710938 573.316406 721.050781 568.90625 C 727.925781 559.796875 737.105469 552.992188 744.214844 544.171875 C 748.71875 537.761719 787.921875 452.558594 782.136719 459.972656 C 777.027344 466.578125 744.644531 531.992188 741.160156 535.3125 C 735.804688 541.957031 724.585938 550.226562 716.941406 553.011719 C 706.492188 551.136719 692.453125 569.316406 682.273438 573.457031 C 678.878906 575.316406 673.574219 576.886719 677.828125 582.941406 C 678.828125 584.546875 671.574219 591.335938 668.804688 588.996094"/><path fill="#31D35C" d="M 573.390625 556.761719 L 573.570312 557.351562 L 573.75 556.851562 Z M 573.390625 556.761719"/></svg>